<?xml version="1.0" encoding="UTF-8"?>
<svg id="Layer_2" xmlns="http://www.w3.org/2000/svg" viewBox="0 0 185 127.5">
  <defs>
    <style>
      .cls-1 {
        fill: #72b87c;
      }

      .cls-2 {
        fill: #ed206b;
      }

      .cls-3 {
        fill: #24c0d5;
      }
    </style>
  </defs>
  <g id="Layer_2-2" data-name="Layer_2">
    <g>
      <path class="cls-2" d="M77.23,74.86s.37-1.46.37-2.37c0-2.37-.46-3.65-8.85-5.84l-11.4-2.92c-9.85-2.46-13.41-6.02-13.41-15.78,0-7.66,3.24-11.86,5.63-13.71.8-.62,3.36-2.44,7.91-3.6,2.86-.73,1.79,9.87.56,10.84-2.79,2.19-2.63,5.2-2.63,5.56,0,2.65,1.58,3.65,8.15,5.39l9.85,2.46c12.96,3.38,16.7,6.84,16.7,16.24,0,8.76-3.83,12.77-6.66,14.87-2.19-2.46-6.2-11.13-6.2-11.13ZM44.84,88.73v-9.94c3.65.82,12.59,1.82,18.25,1.82s11.04-.73,14.32-2.19c-.73,3.1-2.83,9.21-4.38,11.31-1.92.55-7.03,1.09-10.95,1.09-5.84,0-13.96-.91-17.24-2.1ZM57.46,30.63c3.13-.83,10.37-1.66,14.11-1.66,5.47,0,12.13.73,15.33,1.46v10.04c-4.01-.64-11.31-1.28-15.33-1.28-6.57,0-12.57.63-14.94,3.47-1.9,2.28-6.41-10.11.83-12.03Z"/>
      <path class="cls-2" d="M96.37,61.27c0-10.4,4.96-28.11,10.22-28.82,4.16-.56,5.62,12.89,4.47,16.68-.78,2.58-1.92,7.3-1.92,11.31-.09,12.5,4.47,19.34,18.61,19.34,5.47,0,10.77-.82,14.23-1.46v10.77c-3.01.91-9.67,2.01-15.97,2.01-22.72,0-29.65-12.41-29.65-29.83ZM115.34,30.43c2.46-.64,8.58-1.19,12.32-1.19,4.01,0,10.67.64,13.32,1.28v10.77c-4.2-.55-10.49-1-14.42-1-6.02,0-10.02.68-12.2,2.65-2.67,2.42-.85-10.04.98-12.5Z"/>
      <path class="cls-2" d="M73.03,89.73s7.89-1.45,10.4-3.74-4.73-15.51-6.15-11.35"/>
      <path class="cls-2" d="M74.04,79.51s1.67-.13,2.55-2.68-.53,2.15-.53,2.15"/>
      <path class="cls-2" d="M116.2,30.2c-7.95,1.14-10.1,1.55-11.92,3.72-2.53,3.03,5.7,16.19,6.77,15.21,0,0,.58-2.64,3.31-6.2,1.38-1.8,5.85-13.31,1.84-12.73Z"/>
    </g>
    <path class="cls-1" d="M61.8.81h14.05l-.46,13.5h-13.14l-.46-13.5ZM86.07.81h13.96l-.46,13.5h-13.05l-.46-13.5ZM109.15.81h13.96l-.46,13.5h-13.05l-.46-13.5Z"/>
    <path class="cls-1" d="M61.8,109.81h14.05l-.46,13.5h-13.14l-.46-13.5ZM86.07,109.81h13.96l-.46,13.5h-13.05l-.46-13.5ZM109.15,109.81h13.96l-.46,13.5h-13.05l-.46-13.5Z"/>
    <g>
      <path class="cls-3" d="M153.41,103.45v-24.05c0-6.01-3.36-8.81-9.93-8.81v-13.7c24.19,0,27.4,6.57,27.4,22.79v22.09c0,6.85,1.68,10.49,14.12,10.49v15.24h-2.66c-26.42,0-28.94-6.71-28.94-24.05ZM153.41,24.05c0-17.33,2.52-24.05,28.94-24.05h2.66v15.24c-12.44,0-14.12,3.63-14.12,10.62v18.87c-3.22,3.78-12.02,8.53-17.48,9.79v-30.48Z"/>
      <path class="cls-3" d="M14.12,47.81v-21.95c0-6.99-1.68-10.62-14.12-10.62V0h2.66c26.28,0,28.8,6.71,28.8,24.05v24.19c0,5.87,3.36,8.53,10.07,8.53v13.7c-24.19,0-27.4-6.43-27.4-22.65ZM0,112.26c12.44,0,14.12-3.63,14.12-10.49v-19.01c3.08-3.77,11.88-8.39,17.34-9.79v30.48c0,17.33-2.52,24.05-28.8,24.05H0v-15.24Z"/>
    </g>
  </g>
</svg>