<?xml version="1.0" encoding="UTF-8"?>
<svg id="Layer_1" xmlns="http://www.w3.org/2000/svg" version="1.1" viewBox="0 0 1920 1080">
  <!-- Generator: Adobe Illustrator 29.1.0, SVG Export Plug-In . SVG Version: 2.1.0 Build 142)  -->
  <defs>
    <style>
      .st0 {
        fill: none;
        stroke: #8475d4;
        stroke-miterlimit: 10;
        stroke-width: 48px;
      }

      .st1 {
        fill: #ff8ab0;
      }
    </style>
  </defs>
  <path class="st1" d="M935.2,542.2c-5.3,21.1-15.4,1.3-58.6,16.2-32.2,11.1-42.5,45.5-37.1,57.5,5.5,11.9,22.9,23.8,69.8,14.1,46.9-9.8,50.8-48,50.8-48,0-8.7-7.6-165.5,4-176.2s57.6,44.2,57.6,44.2c0,0,0-24.2-20.7-45.5-10.3-10.6-56.9-35.8-56.9-35.8,0,0,1.4,132.7-8.9,173.5Z"/>
  <path class="st0" d="M1414.6,528.7c0,273.6-223.1,495.4-498.3,495.4s-498.3-221.8-498.3-495.4S641.1,33.2,916.3,33.2s498.3,221.8,498.3,495.4ZM928.2,69l-401.2,690.3h802.3L928.2,69ZM917.9,971.1l401.2-690.3h-802.3l401.2,690.3Z"/>
</svg>